<svg width="512" height="512" viewBox="0 0 512 512" xmlns="http://www.w3.org/2000/svg">
  <!-- iOS rounded square background -->
  <rect width="512" height="512" rx="113" ry="113" fill="#00704a"/>
  
  <!-- White circle for contrast -->
  <circle cx="256" cy="256" r="179.2" fill="white"/>
  
  <!-- Light green background -->
  <circle cx="256" cy="256" r="163.84" fill="#e8f5e8"/>
  
  <!-- Baby icon (simplified) -->
  <g transform="translate(256, 256) scale(6.4, 6.4) translate(-12, -12)">
    <!-- Baby face circle -->
    <circle cx="12" cy="12" r="8" fill="none" stroke="#00704a" stroke-width="1.5"/>
    <!-- Eyes -->
    <circle cx="9.5" cy="9.5" r="0.8" fill="#00704a"/>
    <circle cx="14.5" cy="9.5" r="0.8" fill="#00704a"/>
    <!-- Mouth -->
    <path d="M9.5 14c0 1.2 1.2 2.5 2.5 2.5s2.5-1.3 2.5-2.5" fill="none" stroke="#00704a" stroke-width="1.2"/>
    <!-- Hair curls -->
    <path d="M8 6.5c0-0.8 0.8-1.5 1.5-1.5" fill="none" stroke="#00704a" stroke-width="1.2"/>
    <path d="M16 6.5c0-0.8-0.8-1.5-1.5-1.5" fill="none" stroke="#00704a" stroke-width="1.2"/>
    <path d="M12 5c0-0.8 0-1.5 0-1.5" fill="none" stroke="#00704a" stroke-width="1.2"/>
  </g>
</svg>